<svg width="100" height="100" viewBox="0 0 100 100" fill="none" xmlns="http://www.w3.org/2000/svg">
<rect width="100" height="100" rx="50" fill="white"/>
<g clip-path="url(#clip0_4371_170)">
<path d="M75.4015 28.9739L73.9171 22.7944C73.8514 22.5157 73.6702 22.2758 73.4213 22.1344C73.1724 21.992 72.8698 21.9622 72.593 22.0478C69.2908 23.0941 65.7018 23.9075 61.9246 24.465C58.2779 25.0125 54.3913 25.2973 50.3772 25.3122C46.3621 25.2983 42.4745 25.0125 38.8258 24.465C35.0536 23.9095 31.4656 23.0961 28.1584 22.0478C27.8846 21.9622 27.582 21.993 27.3321 22.1334C27.0822 22.2748 26.901 22.5157 26.8333 22.7934V22.7944L25.3499 28.9748C25.2822 29.2566 25.337 29.5572 25.4993 29.7992C25.6605 30.0401 25.9164 30.2034 26.2021 30.2492C30.5537 30.9401 34.4005 31.4349 37.9626 31.7594C42.2425 32.1397 46.177 32.3249 49.97 32.3249H50.7973C54.5924 32.3249 58.5208 32.1397 62.7898 31.7604C66.3409 31.4369 70.1878 30.9431 74.5493 30.2492C74.836 30.2034 75.0929 30.0391 75.2541 29.7972C75.4154 29.5553 75.4682 29.2556 75.4015 28.9739Z" fill="#004098"/>
<path d="M77.8306 70.8096C77.6703 70.5687 77.4154 70.4025 77.1317 70.3557C72.366 69.5642 68.099 68.9967 64.0859 68.6204C59.2236 68.1744 54.7088 67.9773 50.3771 67.9793C46.0146 67.9713 41.5266 68.1754 36.6644 68.6204C32.6463 68.9977 28.3793 69.5652 23.6196 70.3557C23.3359 70.4025 23.081 70.5687 22.9207 70.8096C22.7614 71.0506 22.7077 71.3492 22.7754 71.63L24.2607 77.8183C24.3274 78.0961 24.5076 78.336 24.7545 78.4764C25.0054 78.6198 25.3051 78.6516 25.5788 78.566C29.2982 77.4151 33.3193 76.5231 37.5295 75.9148C41.6033 75.3165 45.926 75.0059 50.3732 74.991C54.8273 75.0059 59.149 75.3175 63.2228 75.9158C67.435 76.5251 71.455 77.4161 75.1734 78.566C75.274 78.5969 75.3785 78.6118 75.4811 78.6118C75.6603 78.6118 75.8395 78.567 75.9958 78.4774C76.2437 78.336 76.4239 78.0961 76.4906 77.8183L77.9759 71.63C78.0436 71.3492 77.9909 71.0506 77.8306 70.8096Z" fill="#004098"/>
<path d="M66.4731 46.7223H34.2788C33.7034 46.7223 33.2355 47.1902 33.2355 47.7647V52.6907C33.2355 53.2651 33.7034 53.733 34.2788 53.733H66.4731C67.0475 53.733 67.5154 53.2651 67.5154 52.6907V47.7647C67.5154 47.1902 67.0475 46.7223 66.4731 46.7223Z" fill="#E60013"/>
</g>
<defs>
<clipPath id="clip0_4371_170">
<rect width="56" height="56" fill="white" transform="translate(22 22)"/>
</clipPath>
</defs>
</svg>
