<svg width="100" height="100" viewBox="0 0 100 100" fill="none" xmlns="http://www.w3.org/2000/svg">
<rect width="100" height="100" rx="50" fill="#A7D3E8"/>
<g clip-path="url(#clip0_4371_179)">
<path d="M72.4178 61.5911C69.5612 58.496 66.0946 56.026 62.2364 54.3366C58.3782 52.6472 54.2119 51.775 50 51.775C45.7881 51.775 41.6219 52.6472 37.7637 54.3366C33.9055 56.026 30.4389 58.496 27.5822 61.5911C27.1412 62.0788 26.8945 62.7114 26.8889 63.3689V74.0356C26.8983 74.7366 27.1833 75.4058 27.6824 75.8982C28.1815 76.3907 28.8545 76.6667 29.5556 76.6667H70.4445C71.1517 76.6667 71.83 76.3857 72.3301 75.8856C72.8302 75.3855 73.1111 74.7072 73.1111 74V63.3333C73.097 62.6881 72.8508 62.0696 72.4178 61.5911Z" fill="white"/>
<path d="M50 48.2222C56.8729 48.2222 62.4444 42.6506 62.4444 35.7778C62.4444 28.9049 56.8729 23.3333 50 23.3333C43.1271 23.3333 37.5555 28.9049 37.5555 35.7778C37.5555 42.6506 43.1271 48.2222 50 48.2222Z" fill="white"/>
</g>
<defs>
<clipPath id="clip0_4371_179">
<rect width="64" height="64" fill="white" transform="translate(18 18)"/>
</clipPath>
</defs>
</svg>
